<svg id="envelopne" xmlns="http://www.w3.org/2000/svg" width="133.61" height="133.61" viewBox="0 0 133.61 133.61">
  <defs>
    <style>
      .cls-1 {
        fill: #001046;
      }

      .cls-2 {
        fill: #fff;
      }
    </style>
  </defs>
  <title>envelope</title>
  <g>
    <circle class="cls-1" cx="67.35" cy="66.7" r="47.07" transform="translate(-20.2 30.38) rotate(-22.19)"/>
    <g>
      <g>
        <rect class="cls-2" x="37.67" y="46.68" width="59.35" height="40.05"/>
        <path class="cls-1" d="M97,88.19H37.68a1.46,1.46,0,0,1-1.47-1.47v-40a1.46,1.46,0,0,1,1.47-1.46H97a1.46,1.46,0,0,1,1.47,1.46V86.72A1.47,1.47,0,0,1,97,88.19ZM39.14,85.26H95.55V48.14H39.14Z"/>
      </g>
      <path class="cls-1" d="M67.35,72.37a8.2,8.2,0,0,1-5.47-2.09L36.7,47.77a1.47,1.47,0,0,1-.39-1.62,1.45,1.45,0,0,1,1.37-.94H97a1.45,1.45,0,0,1,1.37.94A1.47,1.47,0,0,1,98,47.77L72.81,70.28h0A8.19,8.19,0,0,1,67.35,72.37ZM41.52,48.14l22.32,20a5.26,5.26,0,0,0,7,0l22.32-20Zm30.31,21h0Z"/>
      <path class="cls-1" d="M97,87.92H37.68a1.47,1.47,0,0,1-1-2.56L58.8,65.61a1.47,1.47,0,1,1,2,2.19L41.52,85H93.18L73.94,67.8a1.47,1.47,0,1,1,2-2.19L98,85.36a1.47,1.47,0,0,1-1,2.56Z"/>
    </g>
  </g>
</svg>
