<svg id="leaf" xmlns="http://www.w3.org/2000/svg" width="133.61" height="133.61" viewBox="0 0 133.61 133.61">
  <title>leaf</title>
  <g>
    <path d="M130.21,52.79c-1.3-2-4-1.37-6.16-1-.15-.32-.24-.46-.3-.57s-4,0-4.37,3.39a6.92,6.92,0,0,1-3.47.06,48.87,48.87,0,0,0-4.62-4.47c1.2-.46,1.15-.43,1.47-.57,3.49,1.56,9.36,3.47,9.76-.33a2.85,2.85,0,0,0-.19-1.29,2.83,2.83,0,0,0,2.32-3.94c5.42-2.31,3.1-5.46,1.32-6-1.43-.4-2.75.62-3.64,1.61-.85-1.24-3.7-1.9-4.71.42-3.18-1.26-4.28,5.45-5.07,8.71-.39.16-2.31.8-2.45.85a49.76,49.76,0,0,0-3.55-6.32c5.07,2.81,7.3-4.15,1.63-5.6,0-.79-1.57-1.26-2.28-1.37A1.8,1.8,0,0,0,107.09,35c1.56.53,4,.21,4.37-1.38a3.22,3.22,0,0,0,2.73-.55,1.8,1.8,0,0,0,.53-2.68c2.64-.92,2.41-4.78-1.28-4a3.48,3.48,0,0,0-.19-.69c-.64-1.52-2.17-1.36-3.56-.43-1.2-1.45-3.32-.5-5,1.07-2-2.46-5.51,2.15-7.48,4.69a20.39,20.39,0,0,1-2.31,0l0,0a45.2,45.2,0,0,0-10.22-5.48c.82-.16.86-.16,1.06-.21,1.59,1.07,5.27,3.27,7,2.41A2.05,2.05,0,0,0,94,25.27a2.39,2.39,0,0,0,2.49-2.94c4.81-1.13,3.34-4.08,1.93-4.74-1.12-.54-2.36.12-3.24.81-.52-1.14-2.79-2.09-3.95-.32-2.45-1.49-4.31,3.86-5.44,6.48-1.14.25-1.94.28-2.38.39a46.6,46.6,0,0,0-7.2-1.83c3.31-.22,5.22-3.64,2.18-5.45-1.37-.81-3.35-.28-4.07,0a3.12,3.12,0,0,0-.38-.55c-.37.11-4.57.47-4.29,3.52a42.9,42.9,0,0,0-5.44.92,7.77,7.77,0,0,0,1-2.34c3.2,1,4.81-3.72,4.84-3.77l-.47-.25c2.23-3.33.92-7-1.73-6.81-2.42.18-3.07,2.86-3.76,5a4.4,4.4,0,0,0-.65,0s-1.85,3.52.95,5.45a6.91,6.91,0,0,1-1.58,3.09,49,49,0,0,0-6.12,2c.16-1.27.16-1.22.19-1.57,3-2.35,7.45-6.63,4.28-8.77a2.74,2.74,0,0,0-1.22-.44,2.81,2.81,0,0,0-.34-2.75,2.59,2.59,0,0,0-2.05-1.15c.51-5.86-3.37-5.29-4.65-4-1,1.07-.74,2.72-.28,4-1.49.16-3.41,2.36-1.84,4.35-2.6,2.22,2.8,6.33,5.31,8.56,0,.42,0,.4-.34,2.23a44.64,44.64,0,0,0-6.29,2.38,2.12,2.12,0,0,0-.3-3.59,2.38,2.38,0,0,0-.65-3.79c2.24-4.41-1-5.18-2.38-4.54-1.13.52-1.43,1.89-1.46,3-1.21-.34-3.4.78-2.8,2.82-2.72.91.18,5.78,1.46,8.33C42.73,30,42.23,30.63,42,31c-.36.27-.73.53-1.09.81-1.6-.54-3.83.65-4.55,3.1-.79-.06-1.32,1.52-1.46,2.23a1.81,1.81,0,0,0-1.37-1.25c.58-1.53.36-4-1.22-4.41.59-2.17-1.15-4.63-3.11-3.38-.83-2.67-4.69-2.58-4.06,1.13-2.1.29-2.35,1.93-1.26,3.71-1.49,1.15-.62,3.3.88,5-2.48,1.91,1.81,5.46,4.3,7.54A47,47,0,0,0,23.31,64q-.72-.28-1.44-.6a11.66,11.66,0,0,1-2.21-4c1.59-2.79,4.51-7.78,1.47-8.71.81-2.12.87-4.44-.92-5,.4-2-.42-3.5-2.48-3-.71-3.7-4.36-2.44-4.2.36-2.27-.49-3,2.42-1.73,4.25-1.35.91-.68,3.33.4,4.56a1.83,1.83,0,0,0-.85,1.65C11,52.9,9.93,51.62,9.2,52c-2.33-3.11-7-2.27-6.1,1.5.36,1.54,2.12,2.61,2.79,3a4,4,0,0,0-.14.65l.14.12c1.63,1.41,4,2.18,5.37.55A44.26,44.26,0,0,0,15.69,61a7.72,7.72,0,0,0-2.39.88c-1.47-3-6-.9-6.07-.89.07.24.08.3.14.51-3.95.69-5.71,4.18-3.73,6,1.8,1.62,4.19.25,6.2-.72a4.6,4.6,0,0,0,.44.47c.05,0,3.82-1.1,3.29-4.45a6.83,6.83,0,0,1,3.32-1,50,50,0,0,0,5.66,3c-1,.77-1,.73-1.26,1-3.79-.56-9.95-.81-9.3,3A2.74,2.74,0,0,0,12.51,70a2.83,2.83,0,0,0-1.75,2.15,2.6,2.6,0,0,0,.58,2.27c-4.59,3.69-1.5,6.1.35,6.1,1.48,0,2.48-1.34,3.07-2.54,1.15,1,4.07.83,4.42-1.68,3.4.35,2.64-6.4,2.52-9.76.3-.24.33-.24,1.5-1a45.15,45.15,0,0,0,2.54,17.7,5.16,5.16,0,0,0-2-.08c-.3-2.91-4.65-2.58-4.69-2.58,0,.22,0,.27-.05.46-3.46-.66-6,1.67-4.89,3.72,1,1.89,3.36,1.5,5.29,1.33a4.53,4.53,0,0,0,.22.53c.05,0,3.48.27,4.07-2.64A4.92,4.92,0,0,1,26,83.72c.05.15.1.3.16.45-.92,1.23-.08,2.46,1.34,3.25-.73,1.73,1.09,3.17,3.23,3.92a1.71,1.71,0,0,0,0,1.55h0a49.05,49.05,0,0,0,3.65,4.57l-1.58-.25c-1.26-1.73-4.29-5.46-6.42-5.23a2.33,2.33,0,0,0-2.15,2.07,2.67,2.67,0,0,0-3.75,2.13c-5.5-.66-5.08,3-3.86,4.25,1,1,2.53.78,3.72.39.11,1.4,2.13,3.28,4,1.86,2,2.52,6-2.41,8.22-4.73,1.33.18,2.19.47,2.69.51Q37,100.32,39,102l-2,1c-1.82-.59-6-1.7-7.38-.41a2.08,2.08,0,0,0-.47,2.62,2.37,2.37,0,0,0-1.59,3.49c-4.32,2.41-2.1,4.84-.57,5.1,1.23.21,2.24-.76,2.9-1.67.81,1,3.26,1.25,3.9-.77,2.76.77,3.08-4.89,3.45-7.72.93-.5,1.64-.75,2.06-1a1.08,1.08,0,0,0,.43-.07l.12.1a7,7,0,0,0,.6,3.13c-2.67,1.19-1,5.22-1,5.26l.45-.1c.45,3.5,3.44,5.15,5.06,3.51s.39-3.66-.37-5.45c.24-.19.34-.29.43-.37s-.81-3.39-3.76-3.06a4.5,4.5,0,0,1-.91-2.51,46.05,46.05,0,0,0,19.94,9.47l-1.25.63c-1.63-.54-5.34-1.55-6.62-.4a1.87,1.87,0,0,0-.44,2.35,2.14,2.14,0,0,0-1.44,3.13c-3.88,2.15-1.9,4.34-.52,4.58a2.88,2.88,0,0,0,2.6-1.49,2.09,2.09,0,0,0,3.5-.68c2.48.7,2.79-4.38,3.14-6.92,1-.54,1.74-.74,2.06-1,1,1.2,2.36,1.47,4.07,1.31a6.39,6.39,0,0,0-1.22,2.37c-2.8-.82-4.14,3.33-4.16,3.37l.41.21c-1.91,3-.69,6.15,1.61,5.94,2.12-.19,2.65-2.55,3.23-4.4.3,0,.45,0,.56,0s1.57-3.12-.9-4.77a4.69,4.69,0,0,1,1-2.61c.11.24.17.33.22.43.38-.05,4.58.29,4.81-2.76a46.2,46.2,0,0,0,5.52,0A7.94,7.94,0,0,0,75.09,114c-3-1.53-5.36,2.89-5.39,2.93l.42.32c-2.74,2.93-2.05,6.78.59,7,2.42.22,3.5-2.32,4.53-4.29a5.6,5.6,0,0,0,.64.11s2.39-3.18,0-5.53a6.58,6.58,0,0,1,1.26-2v0a45.32,45.32,0,0,0,5.36-1.38l1.8-.36c-.36,1.23-.35,1.18-.44,1.52-3.36,1.82-8.44,5.32-5.66,8a2.72,2.72,0,0,0,1.13.63,2.84,2.84,0,0,0-.11,2.77A2.61,2.61,0,0,0,81,125.17c-1.45,5.71,2.46,5.78,3.94,4.67,1.19-.89,1.18-2.56.93-3.88,1.5.09,3.76-1.77,2.53-4,2.93-1.76-1.73-6.71-3.84-9.32.11-.41.78-2.38.84-2.54a46.07,46.07,0,0,0,10.06-5.63,4.82,4.82,0,0,0-.13,1.72c-2.92.15-2.8,4.51-2.81,4.55l.45.07c-.83,3.43,1.37,6,3.48,5.08,1.94-.88,1.67-3.28,1.59-5.22.3-.09.43-.15.54-.19s.46-3.46-2.42-4.2A4.75,4.75,0,0,1,96.1,104l.51-.4c1,2.08,4.5,2,6.85-.87.14.15.19.2.37.37,0,0,4.1-3,2.18-5.73a8.11,8.11,0,0,0,1.93-1.66,43.79,43.79,0,0,0,.72,5.47c-3.09.66-2.09,5.07-2.09,5.14a3,3,0,0,0,.63.2c-.13,7.43,8.14,5.17,5.52-.72.64-.47,0-2-.35-2.65a1.83,1.83,0,0,0,1.86.06c.55,1.55,2.34,3.31,3.79,2.57,1,2,3.88,2.78,4.56.56,2.36,1.5,5.24-1.07,2.36-3.49,1.41-1.57.54-3-1.45-3.65.39-1.83-1.66-2.91-3.91-3.23.66-3.12-5.11-3-8.32-3A12.4,12.4,0,0,1,109,89.38c1.59-.31,1.59-.3,1.84-.36,1.59,1.06,5.26,3.26,7,2.41A2.07,2.07,0,0,0,118.94,89a2.38,2.38,0,0,0,2.49-2.93c4.81-1.14,3.33-4.08,1.93-4.75-1.12-.53-2.36.13-3.24.82-.52-1.14-2.79-2.1-4-.32-2.45-1.49-4.3,3.86-5.43,6.48a17.91,17.91,0,0,1-1.8.29c0-.06,0-.12,0-.18a50.26,50.26,0,0,0,4.47-13.55,2.73,2.73,0,0,0,.65-1.28c2.06,1.08,3.6-1.51,2.82-3.62,1.54-.51,1.56-3,.85-4.5A1.83,1.83,0,0,0,119,64.14c.2.72.85,2.23,1.63,2.11,2.34,6,9.73,1.71,4.4-3.4a3.07,3.07,0,0,0,.31-.59c-.27-.27-2.56-3.82-5.12-2.14a44.92,44.92,0,0,0-3.37-4.37,8.11,8.11,0,0,0,2.54-.2c.6,3.3,5.55,2.5,5.6,2.5v-.53C129,57.92,131.63,55,130.21,52.79ZM116.32,40.94c1.05-.46,1.61.05,1.65,1.12,0-1.83.84-3.12,2.69-2.6a1.56,1.56,0,0,1,1.15,2.2s2.78-4.71,5-2.12-3.42,4.23-3.42,4.23a1.68,1.68,0,0,1,.55,2.35c-.78,1.64-2.9,1.14-2.9,1.14s1.73,1.93,0,3.21c-1.44,1.05-5.73-.56-7.39-1.25.76-.41,1.52-.9,2.26-1.39,3.31,1.15,3.67,1.59,3.82,1.2s-.42-.31-3.35-1.5c1.49-1,2.68-1.87,3.11-2.18,2.65.08,3.18.39,3.21,0s-.58-.18-2.63-.39c6.52-4.73,5.91-4.48,5.85-4.56s.15-.19-4.7,3.15c0-1.87.24-2.2-.07-2.28-.48-.14-.21.73-.39,2.6-1.64,1.12-2.27,1.56-3.65,2.44-.06-2,.2-2.55-.2-2.55s-.15.54-.25,2.84c-.87.55-2.29,1.43-3.22,1.9C113.79,46.69,114.84,41.58,116.32,40.94ZM90.79,18.57c.47.22.44.86.41,1.14.28-1.51,1.14-2.46,2.59-1.77a1.31,1.31,0,0,1,.64,2s3-3.5,4.44-1-3.43,3-3.43,3a1.41,1.41,0,0,1,.11,2c-.87,1.25-2.56.53-2.56.53s1.16,1.84-.48,2.65c-1.34.67-4.66-1.28-5.93-2.09.68-.23,1.38-.52,2.06-.82,2.58,1.42,2.81,1.84,3,1.53s-.31-.31-2.56-1.72c1.38-.62,2.49-1.16,2.89-1.36,2.18.45,2.58.78,2.66.44s-.46-.23-2.12-.7c1.83-.9,3.64-1.84,5.44-2.79a.11.11,0,0,0-.1-.2c-1.39.68-2.78,1.34-4.19,2L94,19.69a.18.18,0,1,0-.36-.08l-.44,2c-1.72.79-2.58,1.16-3.36,1.49.27-1.83.5-2.08.19-2.14s-.2.42-.61,2.32c-.8.33-2.1.86-2.94,1.11C87.27,22.45,89.05,17.74,90.79,18.57ZM67.86,9c2.54-.19,2.66,3.58,1.09,5.87a17.4,17.4,0,0,0-4.24-1.47C65.3,11.54,65.89,9.15,67.86,9Zm-4,5a15.46,15.46,0,0,1,5.38,1.75C67.1,21.12,62.06,18.19,63.82,14ZM3.74,53.3c-.34-1.48.33-2,.35-2,1.72-1.1,3.36-.55,4.57,1a10.72,10.72,0,0,0-2.55,3.47C5.47,55.44,4,54.52,3.74,53.3Zm2.72,3.51a8.59,8.59,0,0,1,3.05-4.28C13.1,55,11,60.35,6.46,56.81ZM4.07,67c-1.89-1.7.75-4.4,3.5-4.84a16.9,16.9,0,0,0,1.87,4.08C7.68,67.11,5.55,68.33,4.07,67Zm6.39-.5A15.5,15.5,0,0,1,8,61.4C13.36,59.19,14.73,64.85,10.46,66.51Zm3.36-14.25h.23c-2-.77-3.36-4.51-1-4.51a2.77,2.77,0,0,1,.41,0,2.8,2.8,0,0,1-1.46-3c.42-1.73,1.94-.64,2.34-.64s-.91-2.16,1-2.86c1.61-.59,1.68,2.43,1.71,2.48,3.79-1.61,2.06,2.8,2.09,2.87s1-.68,1.6.68-.82,4.23-.82,4.23a1.27,1.27,0,0,1,1.75.87c.33,1.21-1.77,5-2.37,6.09-.52-1.48-.85-2.68-1.24-4.22,1-1.74,1.52-2.06,1.18-2.28s-.43.4-1.33,1.68c-.5-2.13-.25-1.39-1-5.68a18.43,18.43,0,0,0,1.22-1.84.22.22,0,0,0-.07-.31c-.33-.21-.43.39-1.26,1.52l-.42-2.52a.24.24,0,1,0-.47.08l.75,5.22c-2.14-.76-2.54-1.2-2.69-.82s.51.36,2.77,1.33l.2,1.39v0c0,.57.48,2.48.62,3.06a12.18,12.18,0,0,1-3.09-1.27.23.23,0,0,0-.22.4,11.57,11.57,0,0,0,3.42,1.32c.32,1.32.6,2.26.88,3.15C13.41,57.4,9.9,52.26,13.82,52.26Zm-2.26,5.07a3.2,3.2,0,0,0,.38-2.17,11.76,11.76,0,0,0,6.9,4.35,17.63,17.63,0,0,0,1.37,3.14A49.56,49.56,0,0,1,11.56,57.33Zm8.66,17.82c-.9.72-1.57.38-1.9-.63.47,1.77,0,3.23-1.89,3.23a1.55,1.55,0,0,1-1.69-1.81s-1.4,5.29-4.25,3.39,2.15-5,2.15-5a1.68,1.68,0,0,1-1.16-2.11c.3-1.79,2.48-1.89,2.48-1.89s-2.18-1.39-.84-3.1c1.1-1.4,5.67-1,7.45-.79-.61.6-1.21,1.27-1.8,1.94-3.5-.21-4-.53-4-.11s.49.18,3.64.53c-1.17,1.37-2.08,2.53-2.41,3-2.58.63-3.17.48-3.08.89s.6,0,2.63-.34c-5,6.32-4.47,5.92-4.39,6s-.1.22,3.66-4.31c.49,1.81.37,2.18.69,2.18a.22.22,0,0,0,.22-.27l-.54-2.34C16.46,72,17,71.44,18,70.21c.6,1.92.5,2.51.89,2.4s0-.56-.54-2.8c.69-.77,1.82-2,2.59-2.7C21.1,68.93,21.47,74.13,20.22,75.15ZM14.6,84.41c-1-2,2-3.37,4.36-2.89a14.58,14.58,0,0,0,.27,3.92C17.54,85.6,15.4,86,14.6,84.41ZM20,86A13.52,13.52,0,0,1,19.56,81C24.65,80.87,24,85.94,20,86Zm8.87,11.29c-1.69.11-3.06.26-3.57.32-2.12-1.31-2.41-1.81-2.62-1.49s.39.42,2,1.55c-2.28.25-4.54.54-6.81.85a.12.12,0,1,0,0,.24c1.72-.18,3.45-.34,5.18-.48L22,99.89a.21.21,0,0,0,.36.23l1.22-1.91c2.11-.17,3.17-.23,4.12-.28-1,1.82-1.34,2-1,2.18s.37-.37,1.53-2.2c1,0,2.54-.1,3.52,0-1.54,1.71-5.23,6-6.74,4.44-.41-.41-.13-1.08,0-1.35-.88,1.48-2.15,2.15-3.42.86a1.47,1.47,0,0,1,.1-2.33s-4.48,2.54-5.08-.62S21.35,97,21.35,97A1.58,1.58,0,0,1,22,94.85c1.41-1,2.9.43,2.9.43s-.5-2.39,1.54-2.61c1.66-.19,4.41,3.14,5.44,4.48-.81,0-1.66,0-2.49.08-2.17-2.49-2.26-3-2.56-2.77S27,94.91,28.86,97.26ZM34,110.79c-.51-.08-.66-.71-.7-1,.14,1.53-.42,2.68-2,2.41a1.31,1.31,0,0,1-1.14-1.74s-1.91,4.19-4,2.22,2.48-3.84,2.48-3.84A1.41,1.41,0,0,1,28,107c.5-1.44,2.32-1.21,2.32-1.21s-1.62-1.46-.26-2.69c1.11-1,4.83,0,6.28.39-.6.41-1.19.89-1.77,1.36-2.86-.67-3.2-1-3.29-.66s.38.22,2.93,1c-1.16,1-2.07,1.79-2.41,2.1-2.22.16-2.69,0-2.67.3s.5.1,2.23.09c-1.52,1.37-3,2.77-4.48,4.18a.11.11,0,0,0,.15.16c1.15-1,2.32-2.06,3.49-3.06l.1,1.73a.19.19,0,0,0,.38,0l-.12-2c1.44-1.23,2.17-1.83,2.83-2.36.23,1.84.08,2.15.4,2.12s.07-.46-.05-2.4c.68-.54,1.79-1.39,2.52-1.87C36.35,106.1,35.92,111.12,34,110.79Zm10.53,3.32c-1.56,1.59-3.81-.84-4.09-3.24a15.4,15.4,0,0,0,3.64-1.47C44.78,111,45.77,112.88,44.55,114.11Zm-.18-5.6a13.44,13.44,0,0,1-4.57,1.93C38.08,105.66,43.11,104.75,44.37,108.51Zm12,11.7c-.46-.08-.59-.65-.63-.89.12,1.37-.39,2.4-1.82,2.15a1.16,1.16,0,0,1-1-1.56s-1.73,3.75-3.6,2,2.24-3.43,2.24-3.43a1.26,1.26,0,0,1-.58-1.72c.45-1.29,2.08-1.08,2.08-1.08s-1.44-1.31-.22-2.41c1-.9,4.34,0,5.64.37-.54.37-1.07.79-1.59,1.22-2.57-.61-2.88-.91-3-.61s.34.2,2.63.87c-1,.87-1.87,1.61-2.17,1.88-2,.14-2.41,0-2.4.26s.45.09,2,.09q-2.05,1.83-4,3.74c-.1.08,0,.22.13.14,1-.92,2.09-1.84,3.14-2.74l.09,1.56a.17.17,0,0,0,.34,0l-.1-1.81c1.29-1.1,2-1.63,2.55-2.11.2,1.65.06,1.93.35,1.9s.07-.41,0-2.15c.61-.48,1.6-1.25,2.27-1.67C58.45,116,58,120.5,56.34,120.21ZM62,125.46c-2.22.21-2.38-3.1-1-5.12a15.31,15.31,0,0,0,3.74,1.23C64.19,123.19,63.71,125.31,62,125.46Zm3.47-4.4a13.76,13.76,0,0,1-4.74-1.46C62.49,114.83,66.92,117.38,65.45,121.06Zm5.32,2.58c-2.53-.22-2-4-.12-6a17.16,17.16,0,0,0,3.95,2.14C73.71,121.55,72.74,123.82,70.77,123.64Zm4.8-4.24a15.63,15.63,0,0,1-5-2.61C73.5,111.81,78,115.52,75.57,119.4Zm40.21-37.05c.47.22.44.86.4,1.14.29-1.51,1.14-2.46,2.6-1.77a1.3,1.3,0,0,1,.63,2s3-3.5,4.45-1-3.43,3-3.43,3a1.39,1.39,0,0,1,.11,2c-.87,1.26-2.56.54-2.56.54s1.16,1.84-.48,2.65c-1.34.67-4.67-1.28-5.94-2.09.69-.23,1.39-.52,2.07-.82,2.57,1.42,2.81,1.84,3,1.53s-.31-.31-2.56-1.72c1.38-.62,2.48-1.16,2.89-1.36,2.18.45,2.58.78,2.66.44s-.46-.23-2.12-.7c1.83-.9,3.64-1.84,5.44-2.8.13-.06,0-.25-.1-.19q-2.08,1-4.19,2l.37-1.69a.19.19,0,1,0-.37-.08l-.43,2c-1.72.79-2.59,1.16-3.37,1.49.28-1.83.51-2.08.2-2.14s-.2.42-.61,2.32c-.8.33-2.1.85-2.94,1.11C112.26,86.23,114,81.52,115.78,82.35Zm-4.23-30.57a11.6,11.6,0,0,1,1,4.41l-.1.11a39.86,39.86,0,0,0-1.77-5.17Zm-3.5-13.34c5,1.33,2.7,7.6-2.23,3.68A10.65,10.65,0,0,0,108.05,38.44Zm-.51-.71a8.64,8.64,0,0,1-2.78,4.46C99.73,39.33,103.86,35.37,107.54,37.73ZM103,26.44a1.27,1.27,0,0,1,1.48,1.28s2.09-2.45,3.59-2.38,1.23,1.17,1.25,1.22,2.5-2.37,3.24-.58a3.83,3.83,0,0,1,.21,1.41c.05,0,2.86-1.09,2.94.62.09,2-2.43,1.62-2.25,2s1.74,1.35.3,2.41a2.81,2.81,0,0,1-3.34-.19,1.94,1.94,0,0,1,.19.36c.91,2.18-3.06,2.4-4.54.81a2.19,2.19,0,0,1,.09.22c1.51,3.61-4.58,2.35-7.72-1.92.93-.08,1.9-.19,3.24-.39A11.58,11.58,0,0,0,104.18,34c.24.18.52-.17.29-.35a12.46,12.46,0,0,1-2.36-2.37c.59-.1,2.52-.43,3.07-.61h-.05l1.35-.34,2,2a.21.21,0,0,0,.31,0c.3-.28-.27-.48-1.79-2.17l5.12-1.3a.24.24,0,0,0-.12-.47L109.5,29c.73-1.2,1.24-1.52.92-1.75a.24.24,0,0,0-.32.06,20.31,20.31,0,0,0-1.23,1.83c-4.25.94-3.47.89-5.63,1.24.84-1.31,1.37-1.63,1-1.86s-.43.35-1.65,1.95c-1.57.24-2.81.39-4.38.49C99,30,101.73,26.6,103,26.44Zm-8.61,5.32a18.12,18.12,0,0,0,3.15,0,11.69,11.69,0,0,0,6.66,4.7,3.19,3.19,0,0,0-1.85,1.19,49.8,49.8,0,0,1-8-5.79Zm-.1,10.45c-.11-4.57,5.65-5.48,5.66.31A15.64,15.64,0,0,1,94.26,42.21Zm2,6.1c-1.79-.86-1.47-3.3-1.35-5.25a17,17,0,0,0,4.48.16C100,45.93,98.54,49.4,96.25,48.31ZM75.31,22.46a10.52,10.52,0,0,0-.75-4.24C80.6,16.34,80.46,23,75.31,22.46Zm-1.72-4.69a8.73,8.73,0,0,1,1,5.12c-.93-.12-1.86-.22-2.8-.29C69.59,21.47,69.32,18.41,73.59,17.77ZM78.45,30.1c1,1.5-.88,1.84-1.15,2.13s2.19.84,1.37,2.71c-.69,1.57-2.92-.47-3-.48a3.65,3.65,0,0,1-.7,1.23c-1.34,1.4-2.82-1.7-2.82-1.7s-.18,1.17-1.6.69-2.49-3.52-2.49-3.52a1.27,1.27,0,0,1-1.84.66c-1.11-.6-2.42-4.76-2.77-5.92a43.85,43.85,0,0,1,3.91,2c.56,1.94.44,2.52.83,2.42s0-.58-.29-2.11c1.88,1.11,1.17.78,4.8,3.19a17.84,17.84,0,0,0,.49,2.15.23.23,0,0,0,.27.17c.38-.1,0-.58-.23-2l2.11,1.43a.24.24,0,0,0,.28-.39l-4.3-3.06c2-1,2.62-1,2.45-1.38s-.61.12-2.87,1.08l-1.14-.81,0,0c-.45-.37-2.13-1.38-2.65-1.68a12.64,12.64,0,0,1,3.06-1.36.22.22,0,0,0-.14-.42,11.49,11.49,0,0,0-3.32,1.55c-1.17-.67-2-1.12-2.88-1.53,2.68-1.71,4.35-1.59,7.64-1.37,2,.86.12,2.47.09,2.53,2-.94,5.58.69,3.94,2.4a2.29,2.29,0,0,1-.3.27A2.8,2.8,0,0,1,78.45,30.1Zm-8.76-9a3.1,3.1,0,0,0,.89,1.43,45.1,45.1,0,0,0-8.7.45A48.61,48.61,0,0,1,69.69,21.1Zm-5,2.84a10.37,10.37,0,0,0-1.61.91c-.5-.23-.94-.41-1.32-.56C62.73,24.14,63.71,24,64.69,23.94ZM50.83,15.05c.09-1.15.8-1.4,1.76-.94-1.6-.88-2.36-2.2-1-3.59a1.56,1.56,0,0,1,2.48,0c0-.06-2.86-4.67.48-5.41s2.13,5,2.13,5a1.66,1.66,0,0,1,2.32.62c1.09,1.45-.35,3.09-.35,3.09s2.52-.62,2.83,1.54c.25,1.76-3.19,4.8-4.58,5.93,0-.86-.08-1.75-.16-2.64,2.57-2.38,3.12-2.5,2.85-2.81s-.47.23-2.9,2.26c-.19-1.8-.39-3.25-.47-3.78C57.51,12,58,11.71,57.68,11.5s-.43.42-1.58,2.14c-1.12-8-1.19-7.33-1.28-7.31s-.1-.23.58,5.62c-1.65-.9-1.83-1.24-2-1a.22.22,0,0,0,0,.35l2.06,1.22c.23,2,.32,2.74.45,4.37-1.8-.89-2.15-1.37-2.35-1a.23.23,0,0,0,.09.31l2.3,1.24c.08,1,.19,2.7.17,3.74C54.71,20,50.69,16.65,50.83,15.05ZM42,21.21c.47-.21.94.23,1.13.43-1-1.19-1.15-2.46.32-3.12a1.29,1.29,0,0,1,1.92.79s-.76-4.53,2.08-4.07.09,4.57.09,4.57A1.4,1.4,0,0,1,49.12,21c.39,1.47-1.25,2.3-1.25,2.3s2.16.31,1.72,2.08c-.35,1.46-4,2.74-5.42,3.19.26-.67.49-1.39.7-2.11,2.75-1.05,3.22-1,3.1-1.3s-.44,0-3,.86c.42-1.46.72-2.66.83-3.09,1.74-1.38,2.25-1.47,2-1.75s-.47.2-1.9,1.17c.49-2,.94-4,1.37-6a.11.11,0,0,0-.21,0c-.38,1.5-.77,3-1.18,4.49L44.9,19.46a.19.19,0,0,0-.3.23l1.23,1.61c-.51,1.82-.78,2.73-1,3.53-1.22-1.39-1.27-1.73-1.51-1.52s.19.42,1.38,2c-.27.83-.7,2.16-1.05,3C42.66,26.41,40.2,22,42,21.21Zm3.42,7.63c-.65.39-1.3.8-1.94,1.22.3-.52.32-.57.4-.73C44.26,29.21,44.8,29,45.38,28.84Zm-4.75,8.62A10.84,10.84,0,0,0,37,35.1C38.54,30.14,44.72,32.68,40.63,37.46ZM36.3,35.59a8.61,8.61,0,0,1,4.36,2.94C37.61,43.45,33.81,39.18,36.3,35.59Zm-1.36,3.32a3.21,3.21,0,0,0,1.12,1.9,49.75,49.75,0,0,1-6.25,8A17.18,17.18,0,0,0,30,45.4,11.75,11.75,0,0,0,34.94,38.91Zm-10.09.83a1.25,1.25,0,0,1,1.34-1.43s-2.37-2.18-2.26-3.68,1.23-1.18,1.27-1.2S22,29.84,26.15,30c0-.06-1-2.91.73-2.92,2.05,0,1.53,2.48,2,2.32s1.41-1.69,2.41-.22a2.83,2.83,0,0,1-.31,3.34,1.91,1.91,0,0,1,.37-.18c2.21-.82,2.28,3.15.64,4.57l.22-.09c3.67-1.37,2.18,4.67-2.2,7.66,0-.94-.12-1.91-.27-3.26a11.24,11.24,0,0,0,2.74-2.44.22.22,0,0,0-.34-.29,12.41,12.41,0,0,1-2.46,2.27c-.07-.59-.33-2.54-.49-3.09v.05l-.29-1.37c1.83-1.76,2.4-1.91,2.12-2.21s-.49.25-2.23,1.71l-1.12-5.16a.24.24,0,1,0-.47.1l.48,2.5c-1.16-.77-1.47-1.3-1.71-1a.22.22,0,0,0,0,.31,15.51,15.51,0,0,0,1.79,1.3c.78,4.29.76,3.51,1,5.67-1.28-.88-1.58-1.42-1.82-1.1s.34.44,1.89,1.72c.18,1.58.28,2.82.32,4.39C28.26,43.84,25,41,24.85,39.74ZM29.07,48a6.65,6.65,0,0,1-.54,2.08l-.74.7C28.18,49.88,28.61,49,29.07,48ZM26.51,65.74a1.46,1.46,0,0,1,2.18.83s-1-5,2.2-4.62.24,5.11.24,5.11A1.58,1.58,0,0,1,33,68.37C33.47,70,31.66,71,31.66,71s2.42.27,2,2.28c-.35,1.64-4.38,3.19-6,3.74.27-.76.5-1.58.72-2.39,3.05-1.26,3.58-1.18,3.44-1.55s-.49.05-3.3,1.05c.42-1.65.71-3,.82-3.49,1.92-1.6,2.48-1.72,2.24-2s-.52.23-2.09,1.37c.49-2.24.93-4.48,1.35-6.73a.12.12,0,0,0-.24,0c-.37,1.7-.77,3.39-1.18,5.07l-1.22-1.51a.21.21,0,0,0-.33.27l1.43,1.75c-.51,2.06-.79,3.08-1,4-1.41-1.52-1.47-1.9-1.74-1.67s.23.47,1.61,2.15c-.27.94-.72,2.44-1.08,3.36-2.67-4.7-2.54-5-2.62-7.23.29-.7,1-1,1.82-.14C25.12,68,24.89,66.53,26.51,65.74ZM25.81,79a44.13,44.13,0,0,1-1-5.12c.63,1.3,1.37,2.57,1.89,3.55A17.47,17.47,0,0,1,25.81,79ZM31.6,92.83a1.26,1.26,0,0,1,.45-1.9s-3.13-.73-3.77-2.09.48-1.63.51-1.67-4.52-1.57-.85-3.44c0,0-2.29-2-.81-2.9,1.78-1,2.56,1.41,2.85,1.06s.4-2.17,2-1.38a2.81,2.81,0,0,1,1.37,3.06,2.54,2.54,0,0,1,.24-.34c1.52-1.81,3.54,1.61,2.82,3.66a1.45,1.45,0,0,1,.14-.18c2.52-3,4.2,3,1.86,7.74-.5-.79-1-1.61-1.84-2.7a11.75,11.75,0,0,0,1.18-3.47.22.22,0,0,0-.44-.09,12.13,12.13,0,0,1-1,3.18c-.35-.48-1.54-2-2-2.44l0,0-.93-1c.73-2.43,1.15-2.84.76-3s-.31.46-1.1,2.59L29.58,83.6a.24.24,0,0,0-.37.32l1.66,1.93c-1.4-.09-1.92-.4-2,0a.21.21,0,0,0,.19.25,16.59,16.59,0,0,0,2.2.25C34.08,89.69,33.68,89,35,90.77c-1.55-.14-2.08-.46-2.13-.06s.51.21,2.49.56c.94,1.29,1.64,2.31,2.45,3.66C36.59,94.71,32.31,93.86,31.6,92.83ZM44.76,84c-.23,5.78-5.64,3.94-5.24-.41A8.55,8.55,0,0,1,44.76,84Zm-2.71-5.36s.85-.19,1.76,1c.76,1,.53,2.7.39,3.42a10.51,10.51,0,0,0-4.29-.28C39.47,80.85,40.1,79.24,42.05,78.63Zm-2.52,22.66a43.29,43.29,0,0,1-6.17-6.64,33.91,33.91,0,0,0,4.94,1.16,11.56,11.56,0,0,1,1.61,4.24C39.79,100.46,39.66,100.87,39.53,101.29Zm-.66-6.08A11.72,11.72,0,0,0,40,87.14a3.27,3.27,0,0,0,1.91,1.1,50.13,50.13,0,0,1-1.49,10A18.46,18.46,0,0,0,38.87,95.21Zm26.75,13.93a10.63,10.63,0,0,0,0,4.31C59.42,114.32,60.62,107.74,65.62,109.14Zm.93,4.91a8.6,8.6,0,0,1-.13-5.26C70.78,108.63,72.33,114.14,66.55,114.05Zm-.16-11.2a2.68,2.68,0,0,1,.35-.22,2.8,2.8,0,0,1-3-1.53c-.71-1.64,1.17-1.68,1.48-1.92s-2-1.18-.9-2.9c.93-1.43,2.8.94,2.85,1a3.58,3.58,0,0,1,.89-1.1c1.55-1.16,2.5,2.14,2.5,2.14s.37-1.13,1.69-.42,1.88,3.88,1.88,3.88a1.27,1.27,0,0,1,1.93-.35c1,.77,1.61,5.09,1.76,6.3-1.3-.88-2.29-1.64-3.52-2.64-.24-2,0-2.56-.43-2.52s-.11.57-.06,2.13c-1.67-1.4-1-1-4.21-3.93a18.36,18.36,0,0,0-.13-2.2.22.22,0,0,0-.24-.21c-.4,0-.12.56-.1,2l-1.84-1.76a.24.24,0,0,0-.34.35l3.74,3.72c-2.17.68-2.75.57-2.64,1a.22.22,0,0,0,.27.16l2.74-.75,1,1,0,0c.37.43,1.87,1.7,2.33,2.08a12.62,12.62,0,0,1-3.24.84.23.23,0,0,0,.07.45,11.68,11.68,0,0,0,3.53-1c1.05.86,1.83,1.45,2.59,2-4.87,2.08-10.76.07-7.63-2.28l.19-.13C67.81,106.47,64.5,104.27,66.39,102.85Zm12.8,7.94a47.88,47.88,0,0,1-8.25.61,3.22,3.22,0,0,0-1-2,11.73,11.73,0,0,0,8.12-.66,17.79,17.79,0,0,0,2.73,1.57C80.27,110.51,79.73,110.65,79.19,110.79Zm9.37,9.67c-.28,1.11-1,1.25-1.89.63,1.43,1.13,2,2.56.43,3.72a1.55,1.55,0,0,1-2.44-.43c0,.06,2,5.07-1.36,5.26S82,124.36,82,124.36a1.68,1.68,0,0,1-2.2-1c-.83-1.62.86-3,.86-3s-2.59.2-2.54-2c0-1.78,3.92-4.21,5.48-5.1-.13.85-.21,1.74-.27,2.63-2.92,1.93-3.49,2-3.27,2.31s.5-.15,3.23-1.75c-.11,1.79-.14,3.26-.16,3.8-1.67,2-2.24,2.29-1.93,2.56s.5-.35,1.91-1.85c-.2,8,0,7.42.07,7.42s.06.23.35-5.65c1.47,1.16,1.6,1.53,1.86,1.33a.23.23,0,0,0,0-.35l-1.84-1.54c.11-2,.14-2.75.28-4.38,1.63,1.17,1.9,1.7,2.15,1.39a.23.23,0,0,0,0-.32l-2.07-1.6c.09-1,.26-2.7.45-3.72C85.53,115,89,118.9,88.56,120.46Zm7.65-5.08c-2,.92-3.26-2.15-2.66-4.5a14.58,14.58,0,0,0,3.93-.07C97.55,112.51,97.79,114.66,96.21,115.38Zm1.83-5.3a13.52,13.52,0,0,1-5,.18C93.19,105.17,98.21,106.12,98,110.08Zm-1-7.14c-.44-1.92,1.67-3.19,3.28-4.31a17.15,17.15,0,0,0,2.65,3.63C101.27,104.43,97.63,105.42,97.07,102.94Zm6.82-.7a15.47,15.47,0,0,1-3.27-4.63C104.14,94.69,108.42,98.64,103.89,102.24Zm1.48-5.54a3.63,3.63,0,0,0-1.25-.64,41.73,41.73,0,0,0,3.68-5.46c0,1.13,0,2.3,0,3.69A6.83,6.83,0,0,1,105.37,96.7Zm1.77,9.13c-.87-5.72,4.8-4.93,5.23-.58A8.66,8.66,0,0,1,107.14,105.83Zm3.67,4.76c-1,.42-3-.72-3-4a10.64,10.64,0,0,0,4.27-.54C112.92,107.92,112.61,109.62,110.81,110.59Zm.6-16.22c.64.68,1.33,1.38,2.32,2.3a11.49,11.49,0,0,0-.51,3.63.23.23,0,1,0,.45,0,12.29,12.29,0,0,1,.4-3.32c.44.41,1.9,1.72,2.38,2l0,0,1.11.85c-.25,2.52-.59,3-.18,3.06s.21-.51.59-2.75l4.19,3.21a.24.24,0,0,0,.3-.38l-2-1.6c1.39-.17,2,0,1.94-.36a.24.24,0,0,0-.24-.21,20.09,20.09,0,0,0-2.2.17c-3.38-2.75-2.86-2.18-4.47-3.65,1.55-.15,2.13.06,2.11-.34s-.55-.11-2.56-.08c-1.16-1.09-2-2-3.09-3.14,1.22,0,5.58,0,6.48.9a1.28,1.28,0,0,1-.09,2s3.21.12,4.09,1.33-.16,1.7-.18,1.74,4.73.69,1.49,3.22c0,0,2.63,1.57,1.33,2.69-1.54,1.34-2.77-.89-3-.5s0,2.2-1.7,1.73a2.8,2.8,0,0,1-1.92-2.74,2.77,2.77,0,0,1-.17.37c-1.15,2.07-3.78-.91-3.45-3.06C112.9,104.83,110,99.48,111.41,94.37Zm-.6-.67a11.74,11.74,0,0,0,.44,8.14,3.27,3.27,0,0,0-2.08-.72A49.06,49.06,0,0,1,108.74,91,16.65,16.65,0,0,0,110.81,93.7Zm.53-14.55a6.41,6.41,0,0,0-2.61-.19c-.32-2.91-4.67-2.53-4.71-2.53,0,.22,0,.27,0,.46-3.47-.62-6,1.73-4.86,3.77,1,1.88,3.38,1.47,5.31,1.28a3.55,3.55,0,0,0,.22.52s3.48.24,4-2.67a4.71,4.71,0,0,1,2.51-.16,46,46,0,0,1-2.59,6.94c-.18.09-.43.21-.43.22-1.72.84-1.69.84-2.09,1-2.86-1.74-8.39-5.69-9.75-2.55-2.36-.92-3.9,1.57-3.61,3-1.34-.07-3,.15-3.71,1.45-.9,1.61-.31,5.48,5.15,3.27a2.83,2.83,0,0,0,4.43,1.13,2.85,2.85,0,0,0,.78,1c3,2.4,5.77-3.11,7.12-6.68.32-.13.27-.12,1.44-.65a.31.31,0,0,1,0,.1,45.17,45.17,0,0,1-5.16,8,5.71,5.71,0,0,0-2.89,1.46,5.33,5.33,0,0,0,.19.62c-1.55,1.09-3.5,2.29-3.7,4.09l-1.54-.68c-.54-1.43-1.93-4.57-3.45-4.81a1.65,1.65,0,0,0-1.87,1,1.91,1.91,0,0,0-3,.77c-3.68-1.48-4.07,1.13-3.47,2.21a2.59,2.59,0,0,0,2.51,1,1.86,1.86,0,0,0,2.43,2c.92,2.11,4.61-.54,6.56-1.73.57.24,1,.47,1.31.64a44.56,44.56,0,0,1-13.73,7.39,14.71,14.71,0,0,1-3.44-1.7c-.41-3.18-1.06-8.92-4.06-7.84-.62-2.19-2-4.08-3.73-3.45-.73-1.5-2-2.43-3.29-1.43a2.6,2.6,0,0,0-.51.49c-2.79-2.53-5,.68-3.15,2.81-2.11,1-1,3.77,1.17,4.44-.53,1.54,1.45,3.08,3.06,3.41a1.8,1.8,0,0,0,.31,1.83c-.7-.27-2.29-.68-2.67,0-2.79-.81-5.28.9-5.13,2.86a44.24,44.24,0,0,1-19.92-9C42,102,42,102,42.38,101.9c2.49,2.25,7.18,7.17,9.1,4.34,2.14,1.35,4.13-.8,4.12-2.3,1.3.31,3,.41,3.92-.72,1.19-1.42,1.33-5.33-4.44-4.19a2.84,2.84,0,0,0-4.14-2,2.86,2.86,0,0,0-.57-1.16c-2.48-2.92-6.25,2-8.25,5.22-.35.06-.29.06-1.54.36a50.19,50.19,0,0,0,1.3-6.3,6.87,6.87,0,0,1,2.9-1.91c2.22,2.57,5.47.36,5.52.35a4.09,4.09,0,0,0-.08-.65c2-.91,4.62-1.86,4.54-4.28-.09-2.66-3.9-3.56-7-1l-.3-.43s-4.59,2.15-3.22,5.22a8,8,0,0,0-2.21,1.26,46,46,0,0,0,.33-5.51c2.15,0,3-2.31,3-4.47v-.18a3.78,3.78,0,0,0-.59-.32c.16-.74.47-2.77-.48-4-2.33-3.08-6-.08-5.06,3.71a.64.64,0,0,0-.41.48,5.16,5.16,0,0,0,.24,2.19,1.82,1.82,0,0,0-1.81-.41c-.25-1.62-1.68-3.69-3.24-3.24a3.27,3.27,0,0,0-1.74-2.18,1.82,1.82,0,0,0-2.63.77,2.32,2.32,0,0,0-3.44,0c0-.14-.09-.27-.13-.4,1.08-2.08,1.08-2.05,1.21-2.34,2-.64,6.54-2.33,7-4.43a2.31,2.31,0,0,0-1.27-2.69,2.67,2.67,0,0,0-.84-4.23c2.36-5-1.24-5.78-2.81-5-1.25.61-1.54,2.15-1.55,3.41-1.36-.34-3.78,1-3.05,3.24a2.38,2.38,0,0,0-.39.2,44.05,44.05,0,0,1,2.79-16c.16,0,2.16.53,2.57.66,1.05,3.18,2.7,9.77,5.77,8.26,1.2,2.23,4,1.33,4.72,0,1,.91,2.38,1.82,3.76,1.3,1.74-.65,3.79-4-1.8-5.83A2.59,2.59,0,0,0,42,54.37,2.81,2.81,0,0,0,39.58,53a2.77,2.77,0,0,0,.08-1.29c-.72-3.76-6.4-1.37-9.75.47-.33-.11-.28-.09-1.52-.44a50.18,50.18,0,0,0,4.24-4.84,6.73,6.73,0,0,1,3.46-.23c.67,3.32,4.58,3,4.64,3s.13-.27.25-.6c2.21.2,4.93.66,6.05-1.49,1.23-2.36-1.64-5-5.58-4.29,0-.21,0-.27,0-.52,0,0-5-.39-5.37,3a8.25,8.25,0,0,0-2.56,0,42.58,42.58,0,0,0,3-4.63c2.78,1.5,4.87-2.49,4.93-2.56a4.1,4.1,0,0,0-.36-.56c1.41-1.59,2.24-3.64,1-5.33.67-.5,1.34-1,2-1.44a6.43,6.43,0,0,0,2.66.58c-.05,2.92,4.31,3.11,4.35,3.12l.1-.45c3.36,1.06,6.12-1,5.31-3.12-.75-2-3.16-1.89-5.1-1.95a4.23,4.23,0,0,0-.16-.55s-3.41-.69-4.35,2.13a4.82,4.82,0,0,1-2.29-.1A43.32,43.32,0,0,1,60,24.59a19.86,19.86,0,0,1,2.53.9c.92,3.07,2.51,8.63,5.28,7.08,1,2,2.61,3.7,4.25,2.78,1,1.37,2.34,2.08,3.48.88a3.27,3.27,0,0,0,.43-.57c3.16,2,4.77-1.48,2.64-3.29a1.8,1.8,0,0,0,.48-2.69,3.23,3.23,0,0,0-2.35-1.5c.27-1.6-1.94-2.79-3.58-2.86A1.81,1.81,0,0,0,72.93,24a43.53,43.53,0,0,1,17.52,5.58c0,.06-.38,1.86-.5,2.27-3.14,1.17-9.66,3.06-8,6.07-2.18,1.28-1.19,4,.15,4.72-.88,1-1.74,2.44-1.17,3.81.71,1.71,4.12,3.63,5.76-2A2.62,2.62,0,0,0,89,44.09a2.85,2.85,0,0,0,1.31-2.44,3,3,0,0,0,1.3,0c3.72-.86,1.13-6.45-.84-9.73.1-.34.08-.28.39-1.53a50.09,50.09,0,0,0,5,4.06,6.78,6.78,0,0,1,.35,3.44c-3.3.79-2.84,4.69-2.85,4.75a6.15,6.15,0,0,0,.61.23c-.12,2.22-.48,5,1.72,6,2.39,1.14,4.94-1.83,4.07-5.74l.52-.06c0-.05.21-5.07-3.15-5.26a7.94,7.94,0,0,0-.1-2.55,45.26,45.26,0,0,0,4.74,2.83c-1.4,2.82,2.66,4.77,2.73,4.82l.14-.08a43.73,43.73,0,0,1,6.53,14.48c-2.25,2.28-4.88,5.38-2.62,6.84-1.35,1.82-2,4-.46,5.06-1,1.87-.54,3.48,1.56,3.59-.18,2.17,1,3,2.21,2.79C111.92,76.8,111.66,78,111.34,79.15ZM105,81.9a13.48,13.48,0,0,1-.48-4.94C109.63,76.76,109,81.83,105,81.9Zm-.77-.52c-1.69.18-3.82.55-4.64-1-1-2,1.95-3.39,4.33-2.94A14.75,14.75,0,0,0,104.26,81.38Zm-14.83,10c-.27-3.41,5-2,5-2.06a1.55,1.55,0,0,1-.75-2.36c.93-1.68,2.42-1.34,3.74-.07-.73-.79-.69-1.54.37-2,1.5-.6,5.86,2.26,7.39,3.25-1,.33-2.61.72-3.62.94-1.69-1.54-1.9-2.12-2.18-1.82s.28.48,1.66,1.94c-1.6.35-2.36.49-4.31.86-1.44-1.18-1.87-2-2.12-1.55-.15.28.23.36,1.57,1.66-9.21,1.73-6,1.44,1.82.18-1.3,1.6-1.89,1.87-1.58,2.14s.47-.32,2.28-2.26c.53-.09,2-.32,3.74-.67-1.22,2.92-1.68,3.27-1.3,3.44s.33-.4,1.85-3.55c.87-.19,1.75-.38,2.57-.63-.67,1.66-2.56,5.84-4.32,6.12-2.15.34-2.3-2.24-2.3-2.24s-1.14,1.86-2.85,1.25a1.68,1.68,0,0,1-1.28-2S89.69,94.62,89.43,91.34Zm2.69,9.4c-1.19-.24-2.16-.39-2.52-.45-1.22-1.3-1.33-1.7-1.54-1.51s.2.36,1.07,1.43q-2.43-.37-4.86-.69a.09.09,0,0,0,0,.18q1.83.3,3.66.63l-1,.94a.15.15,0,0,0,.21.22l1.19-1.09c1.5.28,2.24.44,2.9.58-1,1.07-1.3,1.13-1.12,1.31s.33-.18,1.47-1.23c.68.15,1.77.41,2.44.63-1.39.9-4.73,3.15-5.49,1.81-.2-.37.12-.77.27-.94-.89.86-1.89,1.09-2.52,0a1,1,0,0,1,.5-1.59s-3.57.92-3.39-1.38S87,99.17,87,99.17a1.14,1.14,0,0,1,.86-1.38c1.15-.41,1.92.84,1.92.84s.1-1.74,1.55-1.51c1.18.18,2.46,3,2.91,4.11-.55-.16-1.14-.3-1.73-.42-1-2.12-1-2.5-1.25-2.38S91.3,98.77,92.12,100.74Zm-38.78-3a1.69,1.69,0,0,1,.87,2.25s5.57-1.7,5.2,1.57-5.26,1.06-5.32,1.07a1.55,1.55,0,0,1,.29,2.46c-1.24,1.47-2.63.86-3.69-.64.57.91.4,1.64-.73,1.86-1.58.31-5.33-3.32-6.65-4.58,1-.13,2.7-.21,3.73-.24,1.37,1.83,1.47,2.44,1.81,2.2s-.19-.52-1.27-2.22c1.63,0,2.41,0,4.39,0,1.2,1.44,1.47,2.31,1.79,1.93s-.15-.39-1.23-1.93c9.38,0,6.22-.27-1.75-.51,1.58-1.33,2.21-1.48,2-1.81s-.52.23-2.67,1.79c-.53,0-2-.06-3.8,0C48,98.23,48.54,98,48.2,97.73s-.4.33-2.49,3.14c-.89,0-1.79,0-2.64.13,1-1.51,3.61-5.25,5.39-5.2,2.18.07,1.84,2.64,1.84,2.64S51.77,96.83,53.34,97.75Zm-3.73-4.46c-4,2.21-7.47-2.48-2.34-5.16A15.41,15.41,0,0,1,49.61,93.29Zm-1.46-5c2.1-1.81,5.87-2.1,6,.44.07,2-2.24,2.82-4,3.61A16.83,16.83,0,0,0,48.15,88.29ZM34.49,55.14c1.45.77,2.12,1.15,3.84,2.14l.31,2.37a.22.22,0,0,0,.3.18c.3-.11.06-.41-.12-2.28,5.11,2.93,4.83,2.94,4.94,2.75s.68.12-6.21-4.06c2-.38,2.65-.2,2.59-.61s-.56-.06-3.2.25c-.46-.28-1.71-1.05-3.28-1.92,2.82-1.43,3.39-1.4,3.21-1.77s-.5.08-3.7,1.5c-.79-.42-1.58-.84-2.37-1.19,1.59-.83,5.74-2.79,7.26-1.86,1.86,1.13.3,3.2.3,3.2s2.07-.68,3,.9A1.67,1.67,0,0,1,41,57.12s5.68,1.27,3.76,3.93-5.11-1.67-5.17-1.69a1.54,1.54,0,0,1-.95,2.28c-1.8.67-2.72-.55-2.9-2.37.05,1.07-.47,1.62-1.55,1.26-1.53-.51-3-5.52-3.53-7.26,1,.39,2.45,1.14,3.37,1.62.29,2.28.07,2.85.48,2.81S34.6,57.15,34.49,55.14ZM40.8,43.38A15.19,15.19,0,0,1,40.29,49C35.72,49,35,43.18,40.8,43.38Zm.69.56c2.73-.53,6.14,1.07,5,3.32-.91,1.76-3.34,1.35-5.29,1.16A16.93,16.93,0,0,0,41.49,43.94Zm9.27-14.6a13.42,13.42,0,0,1-.17,5C45.52,33.84,46.82,28.9,50.76,29.34Zm.69.62c1.7,0,3.86-.06,4.47,1.57.78,2.09-2.37,3.11-4.67,2.35A15,15,0,0,0,51.45,30ZM88.59,43.47a1.69,1.69,0,0,1-2.4-.26s-1,5.72-3.79,3.89,1.48-5.16,1.51-5.22A1.55,1.55,0,0,1,81.59,41c-.74-1.77.45-2.73,2.26-3-1.07.08-1.64-.41-1.31-1.51.46-1.54,5.4-3.2,7.12-3.79-.35,1-1,2.49-1.5,3.43l-2.59.33a.24.24,0,0,0-.2.25c.06.4.56.08,2.56-.1-.71,1.47-1.07,2.16-2,3.91l-2.36.4a.22.22,0,0,0-.17.31c.12.29.42,0,2.27-.21-2.73,5.22-2.75,4.93-2.56,5s-.1.68,3.83-6.35c.45,2,.29,2.64.7,2.56s0-.56-.36-3.18c.26-.47,1-1.75,1.79-3.36,1.54,2.77,1.53,3.34,1.9,3.15s-.11-.5-1.65-3.65c.4-.79.79-1.61,1.11-2.4.89,1.56,3,5.62,2.12,7.18-1.06,1.9-3.18.41-3.18.41S90.13,42.5,88.59,43.47Zm27.69,21.24-.22-.07c1.75,1.28,2,5.25-.27,4.6a2.28,2.28,0,0,1-.38-.14,2.81,2.81,0,0,1,.59,3.3c-.88,1.55-2,.09-2.43,0s.29,2.33-1.75,2.48c-1.71.13-.95-2.8-1-2.85-4.08.52-1.22-3.26-1.23-3.33s-1.12.39-1.36-1.09,1.94-3.85,1.94-3.85a1.26,1.26,0,0,1-1.45-1.31c0-1.26,3.06-4.37,3.93-5.23.09,1.57.09,2.82,0,4.41-1.44,1.4-2,1.57-1.74,1.87s.52-.27,1.72-1.25c-.09,2.18-.13,1.4-.56,5.74a18.83,18.83,0,0,0-1.67,1.43.23.23,0,0,0,0,.32c.27.3.52-.25,1.62-1.12l-.27,2.54a.24.24,0,0,0,.48.06L113,66c1.86,1.31,2.12,1.85,2.37,1.52s-.39-.48-2.3-2l.18-1.39v0c.12-.56.21-2.52.24-3.12a12.37,12.37,0,0,1,2.63,2.06.23.23,0,0,0,.32-.32,11.74,11.74,0,0,0-2.94-2.2c0-1.35,0-2.33,0-3.27C118.07,59.87,120.05,65.77,116.28,64.71Zm5,1.33a10.69,10.69,0,0,0,3.39-2.65C129.14,67.82,123.19,70.86,121.27,66Zm3.33-3.72a8.59,8.59,0,0,1-4.1,3.29C117.72,62.24,121.16,57.67,124.6,62.32Zm-4.77-1.88a3.24,3.24,0,0,0-1,2,11.75,11.75,0,0,0-5.46-6.06,17.17,17.17,0,0,0-.47-3.39A49.66,49.66,0,0,1,119.83,60.44Zm3.54-8.54a15.61,15.61,0,0,1,1,5.58C118.6,58.16,118.82,52.33,123.37,51.9Zm1.61,5a17,17,0,0,0-.69-4.43c1.92-.35,4.31-1,5.37.71C131,55.29,127.74,57.17,125,56.86Z"/>
    <path d="M97.56,87l-.11-.11A.92.92,0,0,0,97.56,87Z"/>
    <path d="M50.69,104.46l-.08-.12Z"/>
  </g>
</svg>
