<svg id="icon1" xmlns="http://www.w3.org/2000/svg" width="133.61" height="133.61" viewBox="0 0 133.61 133.61">
  <defs>
    <style>
      .phone {
        fill: #001046;
      }

      .backgroundphone{
        fill: #fff;
      }
    </style>
  </defs>
  <title>Artboard 1</title>
  <g>
    <circle id="Background" class="cls-1" cx="66.91" cy="64.5" r="47.5" transform="translate(-7.41 120.3) rotate(-80.84)"/>
    <g id="phone">
      <path id="phone-2" data-name="phone" class="cls-2" d="M86.76,76.21a6.41,6.41,0,0,0-8.29-.63L72.8,79.21s-3.67,1.45-13.46-8.3S51,57.53,51,57.53h0l3.63-5.7A6.42,6.42,0,0,0,54,43.48l-5.41-5.41a6.39,6.39,0,0,0-9.64.69l0,.08L36.21,43.3c-.45.62-10.76,15.39,12.1,38.42l.22.21c12,11.9,21.73,14.81,28.4,14.81,6.15,0,9.68-2.47,9.94-2.66l4.61-2.82a6.39,6.39,0,0,0,.69-9.64Z"/>
      <path class="cls-2" d="M78.67,64.19a1,1,0,0,0,.74.31,1,1,0,0,0,.74-.31,9.67,9.67,0,0,0,0-13.67,9.89,9.89,0,0,0-13.68,0,1,1,0,0,0,0,1.48A1.06,1.06,0,0,0,68,52a7.75,7.75,0,0,1,10.72,0,7.59,7.59,0,0,1,0,10.71A1,1,0,0,0,78.67,64.19Z"/>
      <path class="cls-2" d="M83.28,68.37a1,1,0,0,0,.74-.3A15.15,15.15,0,1,0,62.6,46.64a1,1,0,0,0,1.48,1.48A13.06,13.06,0,0,1,82.54,66.59a1,1,0,0,0,.74,1.78Z"/>
      <path class="cls-2" d="M60.13,44.18A18.64,18.64,0,0,1,86.49,70.53a1,1,0,0,0,0,1.48,1,1,0,0,0,.74.31A1,1,0,0,0,88,72,20.73,20.73,0,1,0,58.65,42.7a1,1,0,0,0,1.48,1.48Z"/>
    </g>
  </g>
</svg>
